<svg xmlns="http://www.w3.org/2000/svg" width="1200" height="760" viewBox="0 0 1200 760" role="img" aria-labelledby="title desc">
<title id="title">Automazioni Welora</title><desc id="desc">Dashboard di automazioni, task, dispositivi e colonnine.</desc>
<rect width="1200" height="760" fill="#edf2f7"/><rect x="46" y="38" width="1108" height="684" rx="25" fill="#fff"/>
<rect x="46" y="38" width="1108" height="80" rx="25" fill="#111a2b"/><rect x="46" y="94" width="1108" height="24" fill="#111a2b"/><rect x="76" y="59" width="40" height="40" rx="12" fill="#2563eb"/><text x="96" y="85" text-anchor="middle" font-family="Arial" font-size="16" font-weight="700" fill="#fff">W</text><text x="130" y="76" font-family="Arial" font-size="17" font-weight="700" fill="#fff">Welora Automation</text><text x="130" y="95" font-family="Arial" font-size="10" fill="#9eabba">Workflow, dispositivi e operazioni</text><circle cx="1092" cy="79" r="20" fill="#26324a"/><text x="1092" y="84" text-anchor="middle" font-family="Arial" font-size="10" font-weight="700" fill="#fff">VA</text>
<text x="78" y="161" font-family="Arial" font-size="24" font-weight="700" fill="#172033">Controllo operativo</text><text x="78" y="185" font-family="Arial" font-size="12" fill="#778397">Tutto ciò che deve succedere dopo un evento.</text>
<rect x="78" y="214" width="244" height="101" rx="16" fill="#eff6ff"/><text x="99" y="241" font-family="Arial" font-size="10" font-weight="700" fill="#1e40af">AUTOMAZIONI OGGI</text><text x="99" y="281" font-family="Arial" font-size="34" font-weight="700" fill="#172033">63</text><text x="173" y="280" font-family="Arial" font-size="10" fill="#1e40af">98,4% riuscite</text>
<rect x="340" y="214" width="244" height="101" rx="16" fill="#f5f7fa"/><text x="361" y="241" font-family="Arial" font-size="10" font-weight="700" fill="#657184">TASK APERTI</text><text x="361" y="281" font-family="Arial" font-size="34" font-weight="700" fill="#172033">18</text><text x="415" y="280" font-family="Arial" font-size="10" fill="#946018">3 urgenti</text>
<rect x="602" y="214" width="244" height="101" rx="16" fill="#f5f7fa"/><text x="623" y="241" font-family="Arial" font-size="10" font-weight="700" fill="#657184">DISPOSITIVI ONLINE</text><text x="623" y="281" font-family="Arial" font-size="34" font-weight="700" fill="#172033">47</text><text x="682" y="280" font-family="Arial" font-size="10" fill="#657184">di 49</text>
<rect x="864" y="214" width="260" height="101" rx="16" fill="#111a2b"/><text x="885" y="241" font-family="Arial" font-size="10" font-weight="700" fill="#60a5fa">RISPARMIO STIMATO</text><text x="885" y="281" font-family="Arial" font-size="30" font-weight="700" fill="#fff">€ 426</text><text x="1003" y="280" font-family="Arial" font-size="10" fill="#9eabba">questo mese</text>
<rect x="78" y="339" width="655" height="335" rx="18" fill="#fff" stroke="#dfe5ec"/><text x="102" y="373" font-family="Arial" font-size="17" font-weight="700" fill="#172033">Flussi recenti</text><text x="102" y="394" font-family="Arial" font-size="10" fill="#778397">Eventi, regole e azioni collegate</text>
<g>
<circle cx="119" cy="438" r="14" fill="#2563eb"/><text x="119" y="443" text-anchor="middle" font-family="Arial" font-size="10" font-weight="700" fill="#fff">✓</text><text x="147" y="432" font-family="Arial" font-size="11" font-weight="700" fill="#172033">Checkout completato · Camera 102</text><text x="147" y="450" font-family="Arial" font-size="9" fill="#778397">Task pulizia creato · termostato eco · accesso revocato</text><text x="695" y="440" text-anchor="end" font-family="Arial" font-size="9" fill="#778397">2 min</text><line x1="102" y1="470" x2="707" y2="470" stroke="#e6ebf0"/>
<circle cx="119" cy="500" r="14" fill="#5b8cff"/><text x="119" y="505" text-anchor="middle" font-family="Arial" font-size="10" font-weight="700" fill="#fff">↗</text><text x="147" y="494" font-family="Arial" font-size="11" font-weight="700" fill="#172033">Prenotazione confermata · R-1854</text><text x="147" y="512" font-family="Arial" font-size="9" fill="#778397">Link check-in inviato · codice accesso pianificato</text><text x="695" y="502" text-anchor="end" font-family="Arial" font-size="9" fill="#778397">8 min</text><line x1="102" y1="532" x2="707" y2="532" stroke="#e6ebf0"/>
<circle cx="119" cy="562" r="14" fill="#ffbf69"/><text x="119" y="567" text-anchor="middle" font-family="Arial" font-size="10" font-weight="700" fill="#5e3a08">!</text><text x="147" y="556" font-family="Arial" font-size="11" font-weight="700" fill="#172033">Batteria serratura bassa · Camera 201</text><text x="147" y="574" font-family="Arial" font-size="9" fill="#778397">Task manutenzione urgente assegnato a Luca</text><text x="695" y="564" text-anchor="end" font-family="Arial" font-size="9" fill="#778397">16 min</text><line x1="102" y1="594" x2="707" y2="594" stroke="#e6ebf0"/>
<circle cx="119" cy="624" r="14" fill="#9f7aea"/><text x="119" y="629" text-anchor="middle" font-family="Arial" font-size="10" font-weight="700" fill="#fff">⚡</text><text x="147" y="618" font-family="Arial" font-size="11" font-weight="700" fill="#172033">Ricarica completata · EVSE 2</text><text x="147" y="636" font-family="Arial" font-size="9" fill="#778397">12,4 kWh · € 7,44 addebitati al conto cliente</text><text x="695" y="626" text-anchor="end" font-family="Arial" font-size="9" fill="#778397">31 min</text>
</g>
<rect x="753" y="339" width="371" height="158" rx="18" fill="#fff" stroke="#dfe5ec"/><text x="777" y="373" font-family="Arial" font-size="17" font-weight="700" fill="#172033">Dispositivi</text>
<circle cx="789" cy="415" r="7" fill="#2563eb"/><text x="807" y="419" font-family="Arial" font-size="11" fill="#172033">Serrature</text><text x="1089" y="419" text-anchor="end" font-family="Arial" font-size="11" font-weight="700" fill="#172033">18 / 18</text><circle cx="789" cy="450" r="7" fill="#2563eb"/><text x="807" y="454" font-family="Arial" font-size="11" fill="#172033">Termostati</text><text x="1089" y="454" text-anchor="end" font-family="Arial" font-size="11" font-weight="700" fill="#172033">22 / 23</text><circle cx="789" cy="485" r="7" fill="#ffbf69"/><text x="807" y="489" font-family="Arial" font-size="11" fill="#172033">Colonnine EV</text><text x="1089" y="489" text-anchor="end" font-family="Arial" font-size="11" font-weight="700" fill="#172033">7 / 8</text>
<rect x="753" y="516" width="371" height="158" rx="18" fill="#111a2b"/><text x="777" y="550" font-family="Arial" font-size="17" font-weight="700" fill="#fff">Controllo costi</text><text x="777" y="577" font-family="Arial" font-size="10" fill="#9eabba">Energia camere · ultimi 30 giorni</text><path d="M777 631 C820 625 830 600 865 610 S930 625 966 590 S1035 607 1090 565" fill="none" stroke="#60a5fa" stroke-width="4" stroke-linecap="round"/><text x="777" y="655" font-family="Arial" font-size="10" fill="#9eabba">-14,8% consumo rispetto al mese precedente</text>
</svg>