<svg xmlns="http://www.w3.org/2000/svg" width="1200" height="760" viewBox="0 0 1200 760" role="img" aria-labelledby="title desc">
<title id="title">Operazioni e costi Welora</title><desc id="desc">Task staff, checklist, scorte e marginalità.</desc>
<rect width="1200" height="760" fill="#edf2f7"/><rect x="44" y="38" width="1112" height="684" rx="24" fill="#fff"/>
<rect x="44" y="38" width="196" height="684" rx="24" fill="#111a2b"/><rect x="76" y="69" width="42" height="42" rx="13" fill="#2563eb"/><text x="97" y="96" text-anchor="middle" font-family="Arial" font-size="17" font-weight="700" fill="#fff">W</text><text x="130" y="85" font-family="Arial" font-size="17" font-weight="700" fill="#fff">Welora</text><text x="130" y="102" font-family="Arial" font-size="10" fill="#9eabba">Operations</text>
<g font-family="Arial" font-size="12"><rect x="65" y="155" width="155" height="40" rx="10" fill="#24314a"/><text x="82" y="180" fill="#fff">Task staff</text><text x="82" y="226" fill="#9eabba">Housekeeping</text><text x="82" y="267" fill="#9eabba">Manutenzione</text><text x="82" y="308" fill="#9eabba">Magazzino</text><text x="82" y="349" fill="#9eabba">Acquisti</text><text x="82" y="390" fill="#9eabba">Costi</text><text x="82" y="431" fill="#9eabba">Report</text></g>
<text x="274" y="91" font-family="Arial" font-size="24" font-weight="700" fill="#172033">Task e controllo operativo</text><text x="274" y="116" font-family="Arial" font-size="12" fill="#778397">Assegnazioni, checklist, dipendenze, scorte e impatto economico.</text><rect x="1014" y="70" width="110" height="40" rx="10" fill="#2563eb"/><text x="1069" y="95" text-anchor="middle" font-family="Arial" font-size="11" font-weight="700" fill="#fff">+ Nuovo task</text>
<rect x="274" y="146" width="850" height="64" rx="14" fill="#f5f7fa"/><text x="294" y="173" font-family="Arial" font-size="10" fill="#778397">Stato</text><rect x="294" y="181" width="96" height="18" rx="6" fill="#fff"/><text x="305" y="194" font-family="Arial" font-size="9" fill="#445065">Tutti</text><text x="420" y="173" font-family="Arial" font-size="10" fill="#778397">Reparto</text><rect x="420" y="181" width="126" height="18" rx="6" fill="#fff"/><text x="431" y="194" font-family="Arial" font-size="9" fill="#445065">Tutti</text><rect x="1002" y="165" width="98" height="28" rx="8" fill="#111a2b"/><text x="1051" y="183" text-anchor="middle" font-family="Arial" font-size="9" font-weight="700" fill="#fff">Filtra</text>
<rect x="274" y="232" width="560" height="442" rx="17" fill="#fff" stroke="#dfe5ec"/><rect x="274" y="232" width="560" height="48" rx="17" fill="#f7f9fb"/><rect x="274" y="264" width="560" height="16" fill="#f7f9fb"/>
<g font-family="Arial" font-size="9" fill="#657184"><text x="296" y="260">PRIORITÀ</text><text x="368" y="260">TASK</text><text x="575" y="260">REPARTO</text><text x="680" y="260">STATO</text><text x="766" y="260">CHECK</text></g>
<g stroke="#e4e9ef"><line x1="274" y1="333" x2="834" y2="333"/><line x1="274" y1="386" x2="834" y2="386"/><line x1="274" y1="439" x2="834" y2="439"/><line x1="274" y1="492" x2="834" y2="492"/><line x1="274" y1="545" x2="834" y2="545"/><line x1="274" y1="598" x2="834" y2="598"/></g>
<g font-family="Arial"><rect x="294" y="298" width="51" height="20" rx="7" fill="#ffe8e4"/><text x="319" y="312" text-anchor="middle" font-size="8" font-weight="700" fill="#a83828">URGENTE</text><text x="368" y="307" font-size="11" font-weight="700" fill="#172033">Camera 201 non pronta</text><text x="368" y="323" font-size="8" fill="#778397">Scadenza 13:30 · Luca</text><text x="575" y="313" font-size="9" fill="#445065">Housekeeping</text><rect x="680" y="299" width="69" height="20" rx="7" fill="#fff3df"/><text x="714" y="313" text-anchor="middle" font-size="8" font-weight="700" fill="#8a5a13">IN CORSO</text><text x="782" y="313" font-size="10" font-weight="700" fill="#172033">3/5</text>
<rect x="294" y="351" width="51" height="20" rx="7" fill="#fff3df"/><text x="319" y="365" text-anchor="middle" font-size="8" font-weight="700" fill="#8a5a13">ALTA</text><text x="368" y="360" font-size="11" font-weight="700" fill="#172033">Batteria serratura 201</text><text x="368" y="376" font-size="8" fill="#778397">Generato da dispositivo · Marco</text><text x="575" y="366" font-size="9" fill="#445065">Manutenzione</text><rect x="680" y="352" width="69" height="20" rx="7" fill="#e8efff"/><text x="714" y="366" text-anchor="middle" font-size="8" font-weight="700" fill="#345fc3">ASSEGNATO</text><text x="782" y="366" font-size="10" font-weight="700" fill="#172033">1/2</text>
<rect x="294" y="404" width="51" height="20" rx="7" fill="#e8efff"/><text x="319" y="418" text-anchor="middle" font-size="8" font-weight="700" fill="#345fc3">NORMALE</text><text x="368" y="413" font-size="11" font-weight="700" fill="#172033">Preparare welcome kit</text><text x="368" y="429" font-size="8" fill="#778397">Arrivo R-1854 · Sara</text><text x="575" y="419" font-size="9" fill="#445065">Reception</text><rect x="680" y="405" width="69" height="20" rx="7" fill="#eff6ff"/><text x="714" y="419" text-anchor="middle" font-size="8" font-weight="700" fill="#1e40af">APERTO</text><text x="782" y="419" font-size="10" font-weight="700" fill="#172033">0/3</text>
<rect x="294" y="457" width="51" height="20" rx="7" fill="#e8efff"/><text x="319" y="471" text-anchor="middle" font-size="8" font-weight="700" fill="#345fc3">NORMALE</text><text x="368" y="466" font-size="11" font-weight="700" fill="#172033">Inventario prodotti spa</text><text x="368" y="482" font-size="8" fill="#778397">Fine turno · Elena</text><text x="575" y="472" font-size="9" fill="#445065">Wellness</text><rect x="680" y="458" width="69" height="20" rx="7" fill="#f0eafa"/><text x="714" y="472" text-anchor="middle" font-size="8" font-weight="700" fill="#6a49a7">BLOCCATO</text><text x="782" y="472" font-size="10" font-weight="700" fill="#172033">4/6</text>
<rect x="294" y="510" width="51" height="20" rx="7" fill="#f5f7fa"/><text x="319" y="524" text-anchor="middle" font-size="8" font-weight="700" fill="#657184">BASSA</text><text x="368" y="519" font-size="11" font-weight="700" fill="#172033">Verifica listino fornitore</text><text x="368" y="535" font-size="8" fill="#778397">Scadenza domani · Amministrazione</text><text x="575" y="525" font-size="9" fill="#445065">Acquisti</text><rect x="680" y="511" width="69" height="20" rx="7" fill="#eff6ff"/><text x="714" y="525" text-anchor="middle" font-size="8" font-weight="700" fill="#1e40af">APERTO</text><text x="782" y="525" font-size="10" font-weight="700" fill="#172033">0/1</text>
</g>
<rect x="854" y="232" width="270" height="210" rx="17" fill="#111a2b"/><text x="878" y="265" font-family="Arial" font-size="16" font-weight="700" fill="#fff">Scorte critiche</text><text x="878" y="287" font-family="Arial" font-size="9" fill="#9eabba">Valore a rischio € 384</text><text x="878" y="326" font-family="Arial" font-size="10" fill="#fff">Olio massaggio 500 ml</text><rect x="878" y="338" width="215" height="7" rx="4" fill="#2a3650"/><rect x="878" y="338" width="46" height="7" rx="4" fill="#ffbf69"/><text x="1093" y="326" text-anchor="end" font-family="Arial" font-size="9" fill="#ffbf69">2 pz</text><text x="878" y="375" font-family="Arial" font-size="10" fill="#fff">Welcome kit premium</text><rect x="878" y="387" width="215" height="7" rx="4" fill="#2a3650"/><rect x="878" y="387" width="76" height="7" rx="4" fill="#2563eb"/><text x="1093" y="375" text-anchor="end" font-family="Arial" font-size="9" fill="#60a5fa">7 pz</text><text x="878" y="424" font-family="Arial" font-size="9" font-weight="700" fill="#60a5fa">Genera proposta ordine →</text>
<rect x="854" y="462" width="270" height="212" rx="17" fill="#fff" stroke="#dfe5ec"/><text x="878" y="495" font-family="Arial" font-size="16" font-weight="700" fill="#172033">Marginalità servizi</text><text x="878" y="519" font-family="Arial" font-size="9" fill="#778397">Ultimi 30 giorni</text><text x="878" y="553" font-family="Arial" font-size="10" fill="#445065">Massaggio relax</text><text x="1094" y="553" text-anchor="end" font-family="Arial" font-size="10" font-weight="700" fill="#1e40af">68%</text><rect x="878" y="563" width="215" height="8" rx="4" fill="#edf1f5"/><rect x="878" y="563" width="146" height="8" rx="4" fill="#2563eb"/><text x="878" y="598" font-family="Arial" font-size="10" fill="#445065">Rituale viso</text><text x="1094" y="598" text-anchor="end" font-family="Arial" font-size="10" font-weight="700" fill="#345fc3">54%</text><rect x="878" y="608" width="215" height="8" rx="4" fill="#edf1f5"/><rect x="878" y="608" width="116" height="8" rx="4" fill="#5b8cff"/><text x="878" y="650" font-family="Arial" font-size="9" font-weight="700" fill="#1e40af">Apri controllo costi →</text>
</svg>