<svg xmlns="http://www.w3.org/2000/svg" width="1200" height="760" viewBox="0 0 1200 760" role="img" aria-labelledby="title desc">
<title id="title">Digital Receptionist Welora</title><desc id="desc">Inbox conversazionale con chat, disponibilità e proposta prenotabile.</desc>
<rect width="1200" height="760" fill="#111a2b"/><rect x="44" y="38" width="1112" height="684" rx="26" fill="#f4f7fa"/>
<rect x="44" y="38" width="1112" height="64" rx="26" fill="#fff"/><rect x="44" y="86" width="1112" height="16" fill="#fff"/>
<circle cx="75" cy="70" r="6" fill="#d3dae4"/><circle cx="95" cy="70" r="6" fill="#d3dae4"/><circle cx="115" cy="70" r="6" fill="#d3dae4"/><rect x="145" y="56" width="330" height="28" rx="9" fill="#eef2f6"/><text x="165" y="74" font-family="Arial" font-size="10" fill="#8a95a5">app.welora.it/receptionist</text>
<rect x="44" y="102" width="210" height="620" fill="#111a2b"/><rect x="72" y="130" width="42" height="42" rx="13" fill="#2563eb"/><text x="93" y="157" text-anchor="middle" font-family="Arial" font-size="17" font-weight="700" fill="#fff">W</text><text x="126" y="146" font-family="Arial" font-size="16" font-weight="700" fill="#fff">Digital</text><text x="126" y="163" font-family="Arial" font-size="10" fill="#96a4b9">Receptionist</text>
<rect x="65" y="202" width="168" height="42" rx="11" fill="#24314a"/><text x="82" y="228" font-family="Arial" font-size="12" fill="#fff">Inbox</text><circle cx="213" cy="223" r="11" fill="#2563eb"/><text x="213" y="227" text-anchor="middle" font-family="Arial" font-size="9" font-weight="700" fill="#fff">4</text>
<g font-family="Arial" font-size="12" fill="#9eabba"><text x="82" y="278">Da assegnare</text><text x="82" y="318">In gestione</text><text x="82" y="358">Follow-up</text><text x="82" y="398">Risolte</text><text x="82" y="458">Knowledge base</text><text x="82" y="498">Regole</text><text x="82" y="538">Report</text></g>
<rect x="254" y="102" width="312" height="620" fill="#fff"/><text x="280" y="140" font-family="Arial" font-size="19" font-weight="700" fill="#172033">Conversazioni</text><rect x="280" y="158" width="260" height="38" rx="10" fill="#f2f5f8"/><text x="298" y="182" font-family="Arial" font-size="10" fill="#8a95a5">Cerca cliente o richiesta</text>
<g>
<rect x="270" y="217" width="280" height="92" rx="14" fill="#eff6ff"/><circle cx="306" cy="254" r="19" fill="#5b8cff"/><text x="306" y="259" text-anchor="middle" font-family="Arial" font-size="10" font-weight="700" fill="#fff">LC</text><text x="337" y="242" font-family="Arial" font-size="12" font-weight="700" fill="#172033">Laura Conti</text><text x="337" y="260" font-family="Arial" font-size="9" fill="#617083">WhatsApp · ora</text><text x="337" y="282" font-family="Arial" font-size="10" fill="#445065">Camera + massaggio venerdì...</text><circle cx="522" cy="240" r="6" fill="#2563eb"/>
<circle cx="306" cy="350" r="19" fill="#9f7aea"/><text x="306" y="355" text-anchor="middle" font-family="Arial" font-size="10" font-weight="700" fill="#fff">AM</text><text x="337" y="338" font-family="Arial" font-size="12" font-weight="700" fill="#172033">Andrea Moretti</text><text x="337" y="356" font-family="Arial" font-size="9" fill="#617083">Widget web · 3 min</text><text x="337" y="378" font-family="Arial" font-size="10" fill="#445065">Vorrei spostare l'appuntamento...</text>
<circle cx="306" cy="444" r="19" fill="#ffbf69"/><text x="306" y="449" text-anchor="middle" font-family="Arial" font-size="10" font-weight="700" fill="#5e3a08">JS</text><text x="337" y="432" font-family="Arial" font-size="12" font-weight="700" fill="#172033">John Smith</text><text x="337" y="450" font-family="Arial" font-size="9" fill="#617083">Email · 8 min</text><text x="337" y="472" font-family="Arial" font-size="10" fill="#445065">Late check-in after midnight</text>
<circle cx="306" cy="538" r="19" fill="#45b7b0"/><text x="306" y="543" text-anchor="middle" font-family="Arial" font-size="10" font-weight="700" fill="#fff">SF</text><text x="337" y="526" font-family="Arial" font-size="12" font-weight="700" fill="#172033">Sara Fontana</text><text x="337" y="544" font-family="Arial" font-size="9" fill="#617083">Instagram · 14 min</text><text x="337" y="566" font-family="Arial" font-size="10" fill="#445065">Gift card per due persone</text>
</g>
<rect x="566" y="102" width="590" height="620" fill="#f8fafc"/><rect x="566" y="102" width="590" height="74" fill="#fff"/><circle cx="602" cy="139" r="20" fill="#5b8cff"/><text x="602" y="144" text-anchor="middle" font-family="Arial" font-size="10" font-weight="700" fill="#fff">LC</text><text x="634" y="133" font-family="Arial" font-size="13" font-weight="700" fill="#172033">Laura Conti</text><text x="634" y="151" font-family="Arial" font-size="9" fill="#778397">WhatsApp · Italiano · Nuova richiesta</text><rect x="1020" y="121" width="106" height="34" rx="9" fill="#111a2b"/><text x="1073" y="143" text-anchor="middle" font-family="Arial" font-size="10" font-weight="700" fill="#fff">Prendi in carico</text>
<rect x="850" y="198" width="270" height="66" rx="15" fill="#eef2f6"/><text x="870" y="220" font-family="Arial" font-size="11" fill="#172033">Buongiorno, avete disponibilità venerdì</text><text x="870" y="239" font-family="Arial" font-size="11" fill="#172033">per due persone e un massaggio?</text><text x="1089" y="253" font-family="Arial" font-size="8" fill="#8591a2">10:42</text>
<rect x="595" y="286" width="356" height="94" rx="15" fill="#eff6ff"/><text x="615" y="310" font-family="Arial" font-size="11" fill="#172033">Certo. Venerdì è disponibile una camera Superior</text><text x="615" y="329" font-family="Arial" font-size="11" fill="#172033">per due persone. Posso aggiungere un massaggio di</text><text x="615" y="348" font-family="Arial" font-size="11" fill="#172033">coppia alle 17:30 oppure alle 19:00.</text><text x="615" y="369" font-family="Arial" font-size="8" fill="#1e40af">Digital Receptionist · 10:42</text>
<rect x="595" y="402" width="520" height="154" rx="17" fill="#fff" stroke="#dfe5ec"/><text x="617" y="429" font-family="Arial" font-size="10" font-weight="700" fill="#1e40af">PROPOSTA PRENOTABILE</text><text x="617" y="457" font-family="Arial" font-size="16" font-weight="700" fill="#172033">Camera Superior + massaggio di coppia</text><text x="617" y="482" font-family="Arial" font-size="10" fill="#657184">Ven 17 luglio · 1 notte · 2 persone · trattamento ore 17:30</text><line x1="617" y1="500" x2="1091" y2="500" stroke="#e3e8ee"/><text x="617" y="529" font-family="Arial" font-size="11" fill="#445065">Totale</text><text x="1088" y="529" text-anchor="end" font-family="Arial" font-size="23" font-weight="700" fill="#172033">€ 284</text><rect x="922" y="568" width="193" height="42" rx="11" fill="#2563eb"/><text x="1018" y="594" text-anchor="middle" font-family="Arial" font-size="11" font-weight="700" fill="#fff">Invia link di conferma</text>
<rect x="595" y="584" width="305" height="57" rx="13" fill="#fff" stroke="#dfe5ec"/><text x="613" y="606" font-family="Arial" font-size="9" font-weight="700" fill="#6a49a7">CONTESTO RACCOLTO</text><text x="613" y="625" font-family="Arial" font-size="10" fill="#445065">2 persone · venerdì · massaggio · italiano</text>
<rect x="595" y="661" width="520" height="40" rx="12" fill="#fff" stroke="#dfe5ec"/><text x="613" y="686" font-family="Arial" font-size="10" fill="#8a95a5">Scrivi una risposta o usa il suggerimento...</text><circle cx="1091" cy="681" r="13" fill="#2563eb"/><text x="1091" y="685" text-anchor="middle" font-family="Arial" font-size="12" font-weight="700" fill="#fff">↑</text>
</svg>