<svg xmlns="http://www.w3.org/2000/svg" width="1200" height="760" viewBox="0 0 1200 760" role="img" aria-labelledby="title desc">
<title id="title">Portale cliente Welora</title><desc id="desc">Portale personale con soggiorno, servizi, accesso camera e ricarica auto.</desc>
<rect width="1200" height="760" fill="#edf2f7"/><rect x="54" y="38" width="1092" height="684" rx="28" fill="#fff"/>
<rect x="54" y="38" width="1092" height="86" rx="28" fill="#111a2b"/><rect x="54" y="100" width="1092" height="24" fill="#111a2b"/><rect x="84" y="60" width="42" height="42" rx="13" fill="#2563eb"/><text x="105" y="87" text-anchor="middle" font-family="Arial" font-size="17" font-weight="700" fill="#fff">W</text><text x="140" y="77" font-family="Arial" font-size="18" font-weight="700" fill="#fff">Welora</text><text x="140" y="96" font-family="Arial" font-size="10" fill="#9eabba">Il tuo spazio personale</text><text x="998" y="81" font-family="Arial" font-size="12" fill="#fff">Laura Conti</text><circle cx="1095" cy="81" r="22" fill="#5b8cff"/><text x="1095" y="86" text-anchor="middle" font-family="Arial" font-size="10" font-weight="700" fill="#fff">LC</text>
<text x="88" y="171" font-family="Arial" font-size="25" font-weight="700" fill="#172033">Buongiorno, Laura</text><text x="88" y="196" font-family="Arial" font-size="12" fill="#778397">Qui trovi prenotazioni, servizi, costi e accessi attivi.</text>
<rect x="88" y="225" width="688" height="206" rx="20" fill="#111a2b"/><text x="116" y="257" font-family="Arial" font-size="10" font-weight="700" fill="#60a5fa">IN CORSO</text><text x="116" y="291" font-family="Arial" font-size="25" font-weight="700" fill="#fff">Villa Aurea · Camera 102</text><text x="116" y="319" font-family="Arial" font-size="12" fill="#aeb9c9">14–17 luglio · 2 persone · colazione inclusa</text><rect x="116" y="350" width="148" height="48" rx="12" fill="#2563eb"/><text x="190" y="379" text-anchor="middle" font-family="Arial" font-size="12" font-weight="700" fill="#fff">Apri la porta</text><rect x="276" y="350" width="168" height="48" rx="12" fill="#253149"/><text x="360" y="379" text-anchor="middle" font-family="Arial" font-size="12" font-weight="700" fill="#fff">Gestisci soggiorno</text><text x="640" y="259" font-family="Arial" font-size="10" fill="#9eabba">TOTALE SOGGIORNO</text><text x="640" y="294" font-family="Arial" font-size="31" font-weight="700" fill="#fff">€ 624</text><text x="640" y="319" font-family="Arial" font-size="10" fill="#60a5fa">Pagato</text>
<rect x="804" y="225" width="310" height="206" rx="20" fill="#eff6ff"/><text x="832" y="258" font-family="Arial" font-size="10" font-weight="700" fill="#1e40af">COMFORT CAMERA</text><text x="832" y="293" font-family="Arial" font-size="22" font-weight="700" fill="#172033">22,5°</text><text x="832" y="315" font-family="Arial" font-size="10" fill="#657184">Modalità comfort</text><rect x="832" y="345" width="232" height="10" rx="5" fill="#bfdbfe"/><rect x="832" y="345" width="144" height="10" rx="5" fill="#2563eb"/><circle cx="976" cy="350" r="13" fill="#fff" stroke="#2563eb" stroke-width="4"/><text x="832" y="393" font-family="Arial" font-size="10" fill="#657184">La modalità eco si attiverà al checkout.</text>
<text x="88" y="475" font-family="Arial" font-size="18" font-weight="700" fill="#172033">I tuoi servizi</text>
<rect x="88" y="495" width="322" height="156" rx="17" fill="#fff" stroke="#dfe5ec"/><rect x="108" y="515" width="48" height="48" rx="13" fill="#f0eafa"/><text x="132" y="545" text-anchor="middle" font-family="Arial" font-size="20" fill="#6a49a7">✦</text><text x="173" y="531" font-family="Arial" font-size="10" fill="#8a95a5">OGGI · 17:30</text><text x="173" y="553" font-family="Arial" font-size="14" font-weight="700" fill="#172033">Massaggio di coppia</text><text x="108" y="594" font-family="Arial" font-size="10" fill="#657184">Spa · Cabina 2 · 60 minuti</text><text x="108" y="625" font-family="Arial" font-size="16" font-weight="700" fill="#172033">€ 120</text><text x="382" y="625" text-anchor="end" font-family="Arial" font-size="10" font-weight="700" fill="#1e40af">CONFERMATO</text>
<rect x="430" y="495" width="322" height="156" rx="17" fill="#fff" stroke="#dfe5ec"/><rect x="450" y="515" width="48" height="48" rx="13" fill="#e8efff"/><text x="474" y="545" text-anchor="middle" font-family="Arial" font-size="20" fill="#345fc3">⚡</text><text x="515" y="531" font-family="Arial" font-size="10" fill="#8a95a5">RICARICA AUTO</text><text x="515" y="553" font-family="Arial" font-size="14" font-weight="700" fill="#172033">Colonnina A · EVSE 2</text><text x="450" y="594" font-family="Arial" font-size="10" fill="#657184">12,4 kWh · sessione attiva</text><rect x="450" y="611" width="116" height="28" rx="8" fill="#111a2b"/><text x="508" y="629" text-anchor="middle" font-family="Arial" font-size="9" font-weight="700" fill="#fff">Apri controllo</text><text x="724" y="628" text-anchor="end" font-family="Arial" font-size="14" font-weight="700" fill="#172033">€ 7,44</text>
<rect x="772" y="495" width="342" height="156" rx="17" fill="#fff" stroke="#dfe5ec"/><text x="795" y="526" font-family="Arial" font-size="10" font-weight="700" fill="#1e40af">STORICO E COSTI</text><text x="795" y="555" font-family="Arial" font-size="13" font-weight="700" fill="#172033">Tutto in un unico account</text><text x="795" y="582" font-family="Arial" font-size="10" fill="#657184">3 soggiorni · 7 servizi · 2 gift card</text><line x1="795" y1="599" x2="1090" y2="599" stroke="#e3e8ee"/><text x="795" y="628" font-family="Arial" font-size="10" fill="#657184">Valore totale</text><text x="1090" y="630" text-anchor="end" font-family="Arial" font-size="18" font-weight="700" fill="#172033">€ 1.842</text>
<rect x="88" y="678" width="1026" height="1" fill="#e3e8ee"/>
</svg>