<svg xmlns="http://www.w3.org/2000/svg" width="1200" height="760" viewBox="0 0 1200 760" role="img" aria-labelledby="title desc">
<title id="title">Agenda servizi Welora</title><desc id="desc">Agenda giornaliera con professionisti, trattamenti e cabine.</desc>
<rect width="1200" height="760" fill="#edf2f7"/><rect x="44" y="38" width="1112" height="684" rx="24" fill="#fff"/>
<rect x="44" y="38" width="1112" height="74" rx="24" fill="#111a2b"/><rect x="44" y="90" width="1112" height="22" fill="#111a2b"/>
<rect x="72" y="57" width="38" height="38" rx="12" fill="#2563eb"/><text x="91" y="82" text-anchor="middle" font-family="Arial" font-size="16" font-weight="700" fill="#fff">W</text><text x="122" y="74" font-family="Arial" font-size="17" font-weight="700" fill="#fff">Welora</text><text x="122" y="92" font-family="Arial" font-size="10" fill="#9aa7ba">Beauty &amp; Wellness</text>
<text x="78" y="157" font-family="Arial" font-size="24" font-weight="700" fill="#172033">Agenda servizi</text><text x="78" y="181" font-family="Arial" font-size="12" fill="#778397">Martedì 14 luglio · 27 appuntamenti · 84% capacità</text>
<rect x="792" y="137" width="90" height="40" rx="10" fill="#fff" stroke="#dfe5ec"/><text x="837" y="162" text-anchor="middle" font-family="Arial" font-size="11" fill="#445065">Oggi</text><rect x="892" y="137" width="104" height="40" rx="10" fill="#fff" stroke="#dfe5ec"/><text x="944" y="162" text-anchor="middle" font-family="Arial" font-size="11" fill="#445065">Settimana</text><rect x="1006" y="137" width="118" height="40" rx="10" fill="#2563eb"/><text x="1065" y="162" text-anchor="middle" font-family="Arial" font-size="11" font-weight="700" fill="#fff">+ Appuntamento</text>
<rect x="78" y="210" width="1046" height="456" rx="16" fill="#fff" stroke="#dfe5ec"/>
<rect x="78" y="210" width="1046" height="58" rx="16" fill="#f7f9fb"/><rect x="78" y="252" width="1046" height="16" fill="#f7f9fb"/>
<line x1="158" y1="210" x2="158" y2="666" stroke="#dfe5ec"/>
<g font-family="Arial" text-anchor="middle"><text x="238" y="237" font-size="12" font-weight="700" fill="#172033">Giulia</text><text x="238" y="253" font-size="9" fill="#8490a0">Massaggi</text><text x="412" y="237" font-size="12" font-weight="700" fill="#172033">Elena</text><text x="412" y="253" font-size="9" fill="#8490a0">Estetica</text><text x="586" y="237" font-size="12" font-weight="700" fill="#172033">Marco</text><text x="586" y="253" font-size="9" fill="#8490a0">Hair</text><text x="760" y="237" font-size="12" font-weight="700" fill="#172033">Cabina 1</text><text x="760" y="253" font-size="9" fill="#8490a0">Risorsa</text><text x="934" y="237" font-size="12" font-weight="700" fill="#172033">Cabina 2</text><text x="934" y="253" font-size="9" fill="#8490a0">Risorsa</text></g>
<g stroke="#e4e9ef"><line x1="78" y1="318" x2="1124" y2="318"/><line x1="78" y1="368" x2="1124" y2="368"/><line x1="78" y1="418" x2="1124" y2="418"/><line x1="78" y1="468" x2="1124" y2="468"/><line x1="78" y1="518" x2="1124" y2="518"/><line x1="78" y1="568" x2="1124" y2="568"/><line x1="78" y1="618" x2="1124" y2="618"/><line x1="332" y1="268" x2="332" y2="666"/><line x1="506" y1="268" x2="506" y2="666"/><line x1="680" y1="268" x2="680" y2="666"/><line x1="854" y1="268" x2="854" y2="666"/><line x1="1028" y1="268" x2="1028" y2="666"/></g>
<g font-family="Arial" font-size="10" fill="#8390a0"><text x="103" y="299">09:00</text><text x="103" y="349">10:00</text><text x="103" y="399">11:00</text><text x="103" y="449">12:00</text><text x="103" y="499">13:00</text><text x="103" y="549">14:00</text><text x="103" y="599">15:00</text><text x="103" y="649">16:00</text></g>
<rect x="171" y="282" width="148" height="72" rx="11" fill="#eff6ff" stroke="#bfdbfe"/><text x="184" y="304" font-family="Arial" font-size="10" font-weight="700" fill="#1e40af">09:15 · 60 min</text><text x="184" y="324" font-family="Arial" font-size="12" font-weight="700" fill="#172033">Massaggio relax</text><text x="184" y="342" font-family="Arial" font-size="9" fill="#657184">Laura Bianchi</text>
<rect x="345" y="330" width="148" height="95" rx="11" fill="#f0eafa" stroke="#d8c7f1"/><text x="358" y="352" font-family="Arial" font-size="10" font-weight="700" fill="#6a49a7">10:00 · 90 min</text><text x="358" y="372" font-family="Arial" font-size="12" font-weight="700" fill="#172033">Rituale viso</text><text x="358" y="390" font-family="Arial" font-size="9" fill="#657184">Marta Leone</text><text x="358" y="408" font-family="Arial" font-size="9" fill="#657184">Cabina 2 · € 95</text>
<rect x="519" y="282" width="148" height="47" rx="11" fill="#e8efff" stroke="#cbd8ff"/><text x="532" y="304" font-family="Arial" font-size="10" font-weight="700" fill="#345fc3">09:15 · 45 min</text><text x="532" y="321" font-family="Arial" font-size="11" font-weight="700" fill="#172033">Piega</text>
<rect x="171" y="392" width="148" height="70" rx="11" fill="#fff3df" stroke="#f3d7aa"/><text x="184" y="414" font-family="Arial" font-size="10" font-weight="700" fill="#8a5a13">11:15 · 60 min</text><text x="184" y="434" font-family="Arial" font-size="12" font-weight="700" fill="#172033">Hot stone</text><text x="184" y="451" font-family="Arial" font-size="9" fill="#657184">Davide Riva</text>
<rect x="519" y="430" width="148" height="95" rx="11" fill="#eff6ff" stroke="#bfdbfe"/><text x="532" y="452" font-family="Arial" font-size="10" font-weight="700" fill="#1e40af">12:15 · 90 min</text><text x="532" y="472" font-family="Arial" font-size="12" font-weight="700" fill="#172033">Colore + piega</text><text x="532" y="490" font-family="Arial" font-size="9" fill="#657184">Anna Sala</text><text x="532" y="508" font-family="Arial" font-size="9" fill="#657184">€ 82</text>
<rect x="693" y="330" width="148" height="95" rx="11" fill="#f0eafa" stroke="#d8c7f1"/><text x="706" y="352" font-family="Arial" font-size="10" font-weight="700" fill="#6a49a7">Occupata</text><text x="706" y="374" font-family="Arial" font-size="12" font-weight="700" fill="#172033">Rituale viso</text><text x="706" y="394" font-family="Arial" font-size="9" fill="#657184">Pulizia 15 min</text>
<rect x="867" y="392" width="148" height="70" rx="11" fill="#fff3df" stroke="#f3d7aa"/><text x="880" y="414" font-family="Arial" font-size="10" font-weight="700" fill="#8a5a13">Occupata</text><text x="880" y="436" font-family="Arial" font-size="12" font-weight="700" fill="#172033">Hot stone</text>
<rect x="171" y="542" width="148" height="47" rx="11" fill="#e8efff" stroke="#cbd8ff"/><text x="184" y="563" font-family="Arial" font-size="10" font-weight="700" fill="#345fc3">14:30 · 45 min</text><text x="184" y="580" font-family="Arial" font-size="11" font-weight="700" fill="#172033">Sport massage</text>
<rect x="345" y="542" width="148" height="72" rx="11" fill="#eff6ff" stroke="#bfdbfe"/><text x="358" y="564" font-family="Arial" font-size="10" font-weight="700" fill="#1e40af">14:30 · 60 min</text><text x="358" y="584" font-family="Arial" font-size="12" font-weight="700" fill="#172033">Manicure spa</text><text x="358" y="602" font-family="Arial" font-size="9" fill="#657184">Silvia Neri</text>
<rect x="955" y="565" width="130" height="68" rx="12" fill="#111a2b"/><text x="970" y="588" font-family="Arial" font-size="10" fill="#9eabba">Prossimo slot libero</text><text x="970" y="613" font-family="Arial" font-size="20" font-weight="700" fill="#60a5fa">15:30</text>
</svg>