<svg xmlns="http://www.w3.org/2000/svg" width="1200" height="760" viewBox="0 0 1200 760" role="img" aria-labelledby="title desc">
<title id="title">Planning Welora</title><desc id="desc">Interfaccia con camere, date, prenotazioni e indicatori operativi.</desc>
<defs><filter id="s" x="-20%" y="-20%" width="140%" height="140%"><feDropShadow dx="0" dy="18" stdDeviation="24" flood-color="#0b1220" flood-opacity=".14"/></filter></defs>
<rect width="1200" height="760" fill="#edf2f7"/>
<rect x="45" y="38" width="1110" height="684" rx="24" fill="#fff" filter="url(#s)"/>
<rect x="45" y="38" width="188" height="684" rx="24" fill="#111a2b"/>
<rect x="76" y="72" width="42" height="42" rx="13" fill="#2563eb"/><text x="97" y="99" text-anchor="middle" font-family="Arial" font-size="18" font-weight="700" fill="#fff">W</text>
<text x="130" y="89" font-family="Arial" font-size="17" font-weight="700" fill="#fff">Welora</text><text x="130" y="106" font-family="Arial" font-size="10" fill="#8b98ad">Operations</text>
<rect x="64" y="145" width="150" height="40" rx="10" fill="#2563eb"/><text x="83" y="170" font-family="Arial" font-size="12" font-weight="700" fill="#fff">+ Nuova prenotazione</text>
<g font-family="Arial" font-size="12" fill="#9eabba"><text x="80" y="226">Dashboard</text><rect x="65" y="246" width="150" height="38" rx="9" fill="#24314a"/><text x="80" y="270" fill="#fff">Planning</text><text x="80" y="313">Prenotazioni</text><text x="80" y="354">Servizi</text><text x="80" y="395">Clienti</text><text x="80" y="436">Task staff</text><text x="80" y="477">Report</text><text x="80" y="518">Impostazioni</text></g>
<text x="270" y="92" font-family="Arial" font-size="24" font-weight="700" fill="#172033">Villa Aurea</text><text x="270" y="116" font-family="Arial" font-size="12" fill="#778397">Planning · arrivi, partenze, pulizie e blocchi</text>
<circle cx="1086" cy="93" r="21" fill="#26324a"/><text x="1086" y="98" text-anchor="middle" font-family="Arial" font-size="10" font-weight="700" fill="#fff">VA</text>
<rect x="270" y="145" width="122" height="76" rx="14" fill="#f5f7fa"/><text x="287" y="170" font-family="Arial" font-size="10" fill="#7f8b9c">ARRIVI</text><text x="287" y="202" font-family="Arial" font-size="29" font-weight="700" fill="#172033">12</text>
<rect x="405" y="145" width="122" height="76" rx="14" fill="#f5f7fa"/><text x="422" y="170" font-family="Arial" font-size="10" fill="#7f8b9c">PARTENZE</text><text x="422" y="202" font-family="Arial" font-size="29" font-weight="700" fill="#172033">8</text>
<rect x="540" y="145" width="122" height="76" rx="14" fill="#eff6ff"/><text x="557" y="170" font-family="Arial" font-size="10" fill="#1e40af">DISPONIBILI</text><text x="557" y="202" font-family="Arial" font-size="29" font-weight="700" fill="#1e40af">17</text>
<rect x="675" y="145" width="122" height="76" rx="14" fill="#fff5e8"/><text x="692" y="170" font-family="Arial" font-size="10" fill="#946018">DA PREPARARE</text><text x="692" y="202" font-family="Arial" font-size="29" font-weight="700" fill="#946018">6</text>
<rect x="822" y="158" width="74" height="40" rx="10" fill="#fff" stroke="#dfe5ec"/><text x="859" y="183" text-anchor="middle" font-family="Arial" font-size="11" fill="#445065">Oggi</text>
<rect x="906" y="158" width="96" height="40" rx="10" fill="#fff" stroke="#dfe5ec"/><text x="954" y="183" text-anchor="middle" font-family="Arial" font-size="11" fill="#445065">Precedente</text>
<rect x="1012" y="158" width="104" height="40" rx="10" fill="#2563eb"/><text x="1064" y="183" text-anchor="middle" font-family="Arial" font-size="11" font-weight="700" fill="#fff">Prenota</text>
<rect x="270" y="248" width="846" height="421" rx="16" fill="#fff" stroke="#dfe5ec"/>
<rect x="270" y="248" width="846" height="55" rx="16" fill="#f7f9fb"/>
<rect x="270" y="288" width="846" height="15" fill="#f7f9fb"/>
<line x1="435" y1="248" x2="435" y2="669" stroke="#dfe5ec"/>
<g font-family="Arial" text-anchor="middle"><text x="365" y="281" font-size="11" fill="#738095">Unità</text><text x="489" y="273" font-size="9" fill="#8490a0">LUN</text><text x="489" y="290" font-size="14" font-weight="700" fill="#172033">13</text><text x="584" y="273" font-size="9" fill="#8490a0">MAR</text><text x="584" y="290" font-size="14" font-weight="700" fill="#172033">14</text><text x="679" y="273" font-size="9" fill="#8490a0">MER</text><text x="679" y="290" font-size="14" font-weight="700" fill="#172033">15</text><text x="774" y="273" font-size="9" fill="#8490a0">GIO</text><text x="774" y="290" font-size="14" font-weight="700" fill="#172033">16</text><text x="869" y="273" font-size="9" fill="#8490a0">VEN</text><text x="869" y="290" font-size="14" font-weight="700" fill="#172033">17</text><text x="964" y="273" font-size="9" fill="#8490a0">SAB</text><text x="964" y="290" font-size="14" font-weight="700" fill="#172033">18</text><text x="1059" y="273" font-size="9" fill="#8490a0">DOM</text><text x="1059" y="290" font-size="14" font-weight="700" fill="#172033">19</text></g>
<rect x="435" y="303" width="95" height="366" fill="#f5f8ff"/>
<g stroke="#e1e6ed"><line x1="270" y1="354" x2="1116" y2="354"/><line x1="270" y1="405" x2="1116" y2="405"/><line x1="270" y1="456" x2="1116" y2="456"/><line x1="270" y1="507" x2="1116" y2="507"/><line x1="270" y1="558" x2="1116" y2="558"/><line x1="270" y1="609" x2="1116" y2="609"/><line x1="530" y1="303" x2="530" y2="669"/><line x1="625" y1="303" x2="625" y2="669"/><line x1="720" y1="303" x2="720" y2="669"/><line x1="815" y1="303" x2="815" y2="669"/><line x1="910" y1="303" x2="910" y2="669"/><line x1="1005" y1="303" x2="1005" y2="669"/></g>
<g font-family="Arial"><text x="291" y="332" font-size="12" font-weight="700" fill="#172033">Superior</text><text x="291" y="350" font-size="9" fill="#8390a0">3 unità</text><text x="291" y="384" font-size="12" font-weight="700" fill="#172033">101</text><text x="331" y="384" font-size="9" fill="#8390a0">Garden</text><text x="291" y="435" font-size="12" font-weight="700" fill="#172033">102</text><text x="331" y="435" font-size="9" fill="#8390a0">Balcony</text><text x="291" y="486" font-size="12" font-weight="700" fill="#172033">103</text><text x="331" y="486" font-size="9" fill="#8390a0">Sea view</text><text x="291" y="537" font-size="12" font-weight="700" fill="#172033">201</text><text x="331" y="537" font-size="9" fill="#8390a0">Suite</text><text x="291" y="588" font-size="12" font-weight="700" fill="#172033">202</text><text x="331" y="588" font-size="9" fill="#8390a0">Suite</text><text x="291" y="639" font-size="12" font-weight="700" fill="#172033">203</text><text x="331" y="639" font-size="9" fill="#8390a0">Family</text></g>
<rect x="451" y="366" width="238" height="28" rx="8" fill="#5b8cff"/><text x="465" y="384" font-family="Arial" font-size="10" font-weight="700" fill="#fff">R-1842 · Marco Rossi</text>
<rect x="640" y="417" width="174" height="28" rx="8" fill="#2563eb"/><text x="654" y="435" font-family="Arial" font-size="10" font-weight="700" fill="#fff">R-1849 · Sara Conti</text>
<rect x="546" y="468" width="272" height="28" rx="8" fill="#9f7aea"/><text x="560" y="486" font-family="Arial" font-size="10" font-weight="700" fill="#fff">R-1851 · Oliver Smith</text>
<rect x="922" y="519" width="174" height="28" rx="8" fill="#5b8cff"/><text x="936" y="537" font-family="Arial" font-size="10" font-weight="700" fill="#fff">R-1860 · A. Bianchi</text>
<rect x="451" y="570" width="79" height="28" rx="8" fill="#ffbf69"/><text x="466" y="588" font-family="Arial" font-size="10" font-weight="700" fill="#5e3a08">Pulizia</text>
<rect x="826" y="621" width="174" height="28" rx="8" fill="#d9dee7"/><text x="840" y="639" font-family="Arial" font-size="10" font-weight="700" fill="#4c596b">Blocco manutenzione</text>
</svg>